<svg xmlns="http://www.w3.org/2000/svg" width="12" height="12" fill="none"><path fill="#000" d="M1.315.126a.2.2 0 0 1 .37 0l.305.772a.2.2 0 0 0 .112.112l.772.305a.2.2 0 0 1 0 .37l-.772.305a.2.2 0 0 0-.112.112l-.305.772a.2.2 0 0 1-.37 0l-.305-.772a.2.2 0 0 0-.112-.112l-.772-.305a.2.2 0 0 1 0-.37l.772-.305A.2.2 0 0 0 1.01.898Z"/><path fill="#000" fill-rule="evenodd" d="M5.594 1.333c.225-.609 1.087-.609 1.313 0L7.99 4.26l2.927 1.084c.61.225.61 1.087 0 1.313L7.99 7.74l-1.083 2.927c-.226.61-1.088.61-1.313 0L4.51 7.74 1.583 6.657c-.609-.226-.609-1.088 0-1.313L4.51 4.26Zm.656 1.108L5.4 4.737a.7.7 0 0 1-.413.413L2.69 6l2.296.85a.7.7 0 0 1 .413.413l.85 2.296.85-2.296a.7.7 0 0 1 .413-.413L9.81 6l-2.296-.85a.7.7 0 0 1-.413-.413Z" clip-rule="evenodd"/><path fill="#000" d="M1.685 9.126a.2.2 0 0 0-.37 0l-.305.772a.2.2 0 0 1-.112.112l-.772.305a.2.2 0 0 0 0 .37l.772.305a.2.2 0 0 1 .112.112l.305.772a.2.2 0 0 0 .37 0l.305-.772a.2.2 0 0 1 .112-.112l.772-.305a.2.2 0 0 0 0-.37l-.772-.305a.2.2 0 0 1-.112-.112Z"/></svg>