<svg xmlns="http://www.w3.org/2000/svg" width="16" height="16" fill="none"><path fill="#000" d="M8 8.8a.6.6 0 0 1-.6-.6V5.7a.6.6 0 0 1 1.2 0v2.5a.6.6 0 0 1-.6.6zm0 2.3a.8.8 0 1 1 0-1.6.8.8 0 0 1 0 1.6z"/><path fill="#000" fill-rule="evenodd" d="M9.773 1.919H6.227a1.8 1.8 0 0 0-1.273.527L2.446 4.954a1.8 1.8 0 0 0-.527 1.273v3.546c0 .478.19.936.527 1.273l2.508 2.508a1.8 1.8 0 0 0 1.273.527h3.546a1.8 1.8 0 0 0 1.273-.527l2.508-2.508a1.8 1.8 0 0 0 .527-1.273V6.227a1.8 1.8 0 0 0-.527-1.273l-2.508-2.508a1.8 1.8 0 0 0-1.273-.527ZM5.661 3.153a.8.8 0 0 1 .566-.234h3.546a.8.8 0 0 1 .566.234l2.508 2.508a.8.8 0 0 1 .234.566v3.546a.8.8 0 0 1-.234.566l-2.508 2.508a.8.8 0 0 1-.566.234H6.227a.8.8 0 0 1-.566-.234l-2.508-2.508a.8.8 0 0 1-.234-.566V6.227a.8.8 0 0 1 .234-.566z" clip-rule="evenodd"/><text y="31" fill="#000" font-family="'Helvetica Neue', Helvetica, Arial-Unicode, Arial, Sans-serif" font-size="5" font-weight="bold">Created by Katarina Ilić</text><text y="36" fill="#000" font-family="'Helvetica Neue', Helvetica, Arial-Unicode, Arial, Sans-serif" font-size="5" font-weight="bold">from the Noun Project</text></svg>