<svg xmlns="http://www.w3.org/2000/svg" width="12" height="12" fill="none"><path fill="#000" d="M5.09 7.641a.495.495 0 0 0 .643-.035l2.598-2.482a.497.497 0 0 0-.684-.719l-2.292 2.19-1.03-.788a.495.495 0 1 0-.601.79z" style="stroke-width:.991973"/><path fill="#000" fill-rule="evenodd" d="M7.292.494a1.98 1.98 0 0 0-2.571 0l-.49.418a.99.99 0 0 1-.564.234l-.642.051c-.97.078-1.74.85-1.818 1.822l-.051.643a.994.994 0 0 1-.234.565l-.418.49a1.988 1.988 0 0 0 0 2.576l.418.491a.994.994 0 0 1 .234.565l.05.643a1.984 1.984 0 0 0 1.82 1.822l.64.051a.99.99 0 0 1 .565.234l.49.418a1.98 1.98 0 0 0 2.571 0l.49-.418a.99.99 0 0 1 .564-.234l.642-.051c.97-.078 1.74-.85 1.818-1.822l.051-.643a.994.994 0 0 1 .234-.565l.417-.49a1.988 1.988 0 0 0 0-2.576l-.417-.491a.994.994 0 0 1-.234-.565l-.051-.643a1.984 1.984 0 0 0-1.818-1.822l-.642-.051a.99.99 0 0 1-.564-.234Zm-1.928.755a.99.99 0 0 1 1.285 0l.49.419a1.98 1.98 0 0 0 1.128.468l.642.051c.485.039.87.425.909.91l.051.644c.033.416.197.812.467 1.13l.418.49a.994.994 0 0 1 0 1.288l-.418.491c-.27.318-.434.714-.467 1.13l-.051.643a.992.992 0 0 1-.91.91l-.64.052a1.98 1.98 0 0 0-1.129.468l-.49.419a.99.99 0 0 1-1.285 0l-.49-.419a1.98 1.98 0 0 0-1.128-.468l-.642-.051a.992.992 0 0 1-.91-.91l-.05-.644a1.988 1.988 0 0 0-.468-1.13l-.417-.49a.994.994 0 0 1 0-1.289l.417-.49a2 2 0 0 0 .468-1.13l.05-.643a.992.992 0 0 1 .91-.911l.642-.051a1.98 1.98 0 0 0 1.128-.468Z" clip-rule="evenodd" style="stroke-width:.991973"/></svg>